<mxfile host="app.diagrams.net" modified="2020-12-09T09:55:28.496Z" agent="5.0 (Macintosh; Intel Mac OS X 10_15_6) AppleWebKit/537.36 (KHTML, like Gecko) Chrome/86.0.4240.193 Safari/537.36" etag="Q8rWRIKUezEX7bnuKODB" version="13.11.0" type="github">
  <diagram id="K52qY1N7xwPYtSmFdd-R" name="Page-1">
    <mxGraphModel dx="946" dy="1707" grid="1" gridSize="10" guides="1" tooltips="1" connect="1" arrows="1" fold="1" page="1" pageScale="1" pageWidth="827" pageHeight="1169" math="0" shadow="0">
      <root>
        <mxCell id="0" />
        <mxCell id="1" parent="0" />
        <mxCell id="Ttg7Ia1kwanCxS9OXuqW-1" style="edgeStyle=orthogonalEdgeStyle;rounded=0;sketch=1;orthogonalLoop=1;jettySize=auto;html=1;exitX=1;exitY=0.25;exitDx=0;exitDy=0;entryX=0;entryY=0.25;entryDx=0;entryDy=0;" edge="1" parent="1" source="Ttg7Ia1kwanCxS9OXuqW-2" target="Ttg7Ia1kwanCxS9OXuqW-14">
          <mxGeometry relative="1" as="geometry" />
        </mxCell>
        <mxCell id="Ttg7Ia1kwanCxS9OXuqW-2" value="" style="rounded=1;whiteSpace=wrap;html=1;sketch=1;" vertex="1" parent="1">
          <mxGeometry x="61" y="339.5" width="160" height="260" as="geometry" />
        </mxCell>
        <mxCell id="Ttg7Ia1kwanCxS9OXuqW-3" value="" style="edgeStyle=orthogonalEdgeStyle;rounded=0;orthogonalLoop=1;jettySize=auto;html=1;sketch=1;" edge="1" parent="1" source="Ttg7Ia1kwanCxS9OXuqW-4" target="Ttg7Ia1kwanCxS9OXuqW-8">
          <mxGeometry relative="1" as="geometry" />
        </mxCell>
        <mxCell id="Ttg7Ia1kwanCxS9OXuqW-4" value="最小记录" style="rounded=1;whiteSpace=wrap;html=1;sketch=1;fillColor=#f5f5f5;strokeColor=#666666;fontColor=#333333;" vertex="1" parent="1">
          <mxGeometry x="86" y="354.5" width="110" height="30" as="geometry" />
        </mxCell>
        <mxCell id="Ttg7Ia1kwanCxS9OXuqW-5" value="" style="edgeStyle=orthogonalEdgeStyle;rounded=0;orthogonalLoop=1;jettySize=auto;html=1;sketch=1;" edge="1" parent="1" source="Ttg7Ia1kwanCxS9OXuqW-6" target="Ttg7Ia1kwanCxS9OXuqW-11">
          <mxGeometry relative="1" as="geometry" />
        </mxCell>
        <mxCell id="Ttg7Ia1kwanCxS9OXuqW-6" value="c 2" style="rounded=1;whiteSpace=wrap;html=1;sketch=1;fillColor=#dae8fc;strokeColor=#6c8ebf;" vertex="1" parent="1">
          <mxGeometry x="86" y="504.5" width="110" height="30" as="geometry" />
        </mxCell>
        <mxCell id="Ttg7Ia1kwanCxS9OXuqW-7" value="" style="edgeStyle=orthogonalEdgeStyle;rounded=0;orthogonalLoop=1;jettySize=auto;html=1;sketch=1;" edge="1" parent="1" source="Ttg7Ia1kwanCxS9OXuqW-8" target="Ttg7Ia1kwanCxS9OXuqW-10">
          <mxGeometry relative="1" as="geometry" />
        </mxCell>
        <mxCell id="Ttg7Ia1kwanCxS9OXuqW-8" value="a 1" style="rounded=1;whiteSpace=wrap;html=1;sketch=1;fillColor=#dae8fc;strokeColor=#6c8ebf;" vertex="1" parent="1">
          <mxGeometry x="86" y="404.5" width="110" height="30" as="geometry" />
        </mxCell>
        <mxCell id="Ttg7Ia1kwanCxS9OXuqW-9" value="" style="edgeStyle=orthogonalEdgeStyle;rounded=0;orthogonalLoop=1;jettySize=auto;html=1;sketch=1;" edge="1" parent="1" source="Ttg7Ia1kwanCxS9OXuqW-10" target="Ttg7Ia1kwanCxS9OXuqW-6">
          <mxGeometry relative="1" as="geometry" />
        </mxCell>
        <mxCell id="Ttg7Ia1kwanCxS9OXuqW-10" value="b 3" style="rounded=1;whiteSpace=wrap;html=1;sketch=1;fillColor=#dae8fc;strokeColor=#6c8ebf;" vertex="1" parent="1">
          <mxGeometry x="86" y="454.5" width="110" height="30" as="geometry" />
        </mxCell>
        <mxCell id="Ttg7Ia1kwanCxS9OXuqW-11" value="最大记录" style="rounded=1;whiteSpace=wrap;html=1;sketch=1;fillColor=#f5f5f5;strokeColor=#666666;fontColor=#333333;" vertex="1" parent="1">
          <mxGeometry x="86" y="554" width="110" height="30" as="geometry" />
        </mxCell>
        <mxCell id="Ttg7Ia1kwanCxS9OXuqW-12" style="edgeStyle=orthogonalEdgeStyle;rounded=0;sketch=1;orthogonalLoop=1;jettySize=auto;html=1;exitX=1;exitY=0.25;exitDx=0;exitDy=0;entryX=0;entryY=0.25;entryDx=0;entryDy=0;" edge="1" parent="1" source="Ttg7Ia1kwanCxS9OXuqW-14" target="Ttg7Ia1kwanCxS9OXuqW-25">
          <mxGeometry relative="1" as="geometry" />
        </mxCell>
        <mxCell id="Ttg7Ia1kwanCxS9OXuqW-13" style="edgeStyle=orthogonalEdgeStyle;rounded=0;sketch=1;orthogonalLoop=1;jettySize=auto;html=1;exitX=0;exitY=0.75;exitDx=0;exitDy=0;entryX=1;entryY=0.75;entryDx=0;entryDy=0;" edge="1" parent="1" source="Ttg7Ia1kwanCxS9OXuqW-14" target="Ttg7Ia1kwanCxS9OXuqW-2">
          <mxGeometry relative="1" as="geometry" />
        </mxCell>
        <mxCell id="Ttg7Ia1kwanCxS9OXuqW-14" value="" style="rounded=1;whiteSpace=wrap;html=1;sketch=1;" vertex="1" parent="1">
          <mxGeometry x="310" y="339.5" width="160" height="260" as="geometry" />
        </mxCell>
        <mxCell id="Ttg7Ia1kwanCxS9OXuqW-15" value="" style="edgeStyle=orthogonalEdgeStyle;rounded=0;orthogonalLoop=1;jettySize=auto;html=1;sketch=1;" edge="1" parent="1" source="Ttg7Ia1kwanCxS9OXuqW-16" target="Ttg7Ia1kwanCxS9OXuqW-20">
          <mxGeometry relative="1" as="geometry" />
        </mxCell>
        <mxCell id="Ttg7Ia1kwanCxS9OXuqW-16" value="最小记录" style="rounded=1;whiteSpace=wrap;html=1;sketch=1;fillColor=#f5f5f5;strokeColor=#666666;fontColor=#333333;" vertex="1" parent="1">
          <mxGeometry x="335" y="355" width="110" height="30" as="geometry" />
        </mxCell>
        <mxCell id="Ttg7Ia1kwanCxS9OXuqW-17" value="" style="edgeStyle=orthogonalEdgeStyle;rounded=0;orthogonalLoop=1;jettySize=auto;html=1;sketch=1;" edge="1" parent="1" source="Ttg7Ia1kwanCxS9OXuqW-18" target="Ttg7Ia1kwanCxS9OXuqW-23">
          <mxGeometry relative="1" as="geometry" />
        </mxCell>
        <mxCell id="Ttg7Ia1kwanCxS9OXuqW-18" value="k 7" style="rounded=1;whiteSpace=wrap;html=1;sketch=1;fillColor=#dae8fc;strokeColor=#6c8ebf;" vertex="1" parent="1">
          <mxGeometry x="335" y="505" width="110" height="30" as="geometry" />
        </mxCell>
        <mxCell id="Ttg7Ia1kwanCxS9OXuqW-19" value="" style="edgeStyle=orthogonalEdgeStyle;rounded=0;orthogonalLoop=1;jettySize=auto;html=1;sketch=1;" edge="1" parent="1" source="Ttg7Ia1kwanCxS9OXuqW-20" target="Ttg7Ia1kwanCxS9OXuqW-22">
          <mxGeometry relative="1" as="geometry" />
        </mxCell>
        <mxCell id="Ttg7Ia1kwanCxS9OXuqW-20" value="d 4" style="rounded=1;whiteSpace=wrap;html=1;sketch=1;fillColor=#dae8fc;strokeColor=#6c8ebf;" vertex="1" parent="1">
          <mxGeometry x="335" y="405" width="110" height="30" as="geometry" />
        </mxCell>
        <mxCell id="Ttg7Ia1kwanCxS9OXuqW-21" value="" style="edgeStyle=orthogonalEdgeStyle;rounded=0;orthogonalLoop=1;jettySize=auto;html=1;sketch=1;" edge="1" parent="1" source="Ttg7Ia1kwanCxS9OXuqW-22" target="Ttg7Ia1kwanCxS9OXuqW-18">
          <mxGeometry relative="1" as="geometry" />
        </mxCell>
        <mxCell id="Ttg7Ia1kwanCxS9OXuqW-22" value="h 5" style="rounded=1;whiteSpace=wrap;html=1;sketch=1;fillColor=#dae8fc;strokeColor=#6c8ebf;" vertex="1" parent="1">
          <mxGeometry x="335" y="455" width="110" height="30" as="geometry" />
        </mxCell>
        <mxCell id="Ttg7Ia1kwanCxS9OXuqW-23" value="最大记录" style="rounded=1;whiteSpace=wrap;html=1;sketch=1;fillColor=#f5f5f5;strokeColor=#666666;fontColor=#333333;" vertex="1" parent="1">
          <mxGeometry x="335" y="554.5" width="110" height="30" as="geometry" />
        </mxCell>
        <mxCell id="Ttg7Ia1kwanCxS9OXuqW-24" style="edgeStyle=orthogonalEdgeStyle;rounded=0;sketch=1;orthogonalLoop=1;jettySize=auto;html=1;exitX=0;exitY=0.75;exitDx=0;exitDy=0;entryX=1;entryY=0.75;entryDx=0;entryDy=0;" edge="1" parent="1" source="Ttg7Ia1kwanCxS9OXuqW-25" target="Ttg7Ia1kwanCxS9OXuqW-14">
          <mxGeometry relative="1" as="geometry" />
        </mxCell>
        <mxCell id="Ttg7Ia1kwanCxS9OXuqW-25" value="" style="rounded=1;whiteSpace=wrap;html=1;sketch=1;" vertex="1" parent="1">
          <mxGeometry x="560" y="339.5" width="160" height="260" as="geometry" />
        </mxCell>
        <mxCell id="Ttg7Ia1kwanCxS9OXuqW-26" value="" style="edgeStyle=orthogonalEdgeStyle;rounded=0;orthogonalLoop=1;jettySize=auto;html=1;sketch=1;" edge="1" parent="1" source="Ttg7Ia1kwanCxS9OXuqW-27" target="Ttg7Ia1kwanCxS9OXuqW-29">
          <mxGeometry relative="1" as="geometry" />
        </mxCell>
        <mxCell id="Ttg7Ia1kwanCxS9OXuqW-27" value="最小记录" style="rounded=1;whiteSpace=wrap;html=1;sketch=1;fillColor=#f5f5f5;strokeColor=#666666;fontColor=#333333;" vertex="1" parent="1">
          <mxGeometry x="585" y="374" width="110" height="30" as="geometry" />
        </mxCell>
        <mxCell id="Ttg7Ia1kwanCxS9OXuqW-28" value="" style="edgeStyle=orthogonalEdgeStyle;rounded=0;orthogonalLoop=1;jettySize=auto;html=1;sketch=1;" edge="1" parent="1" source="Ttg7Ia1kwanCxS9OXuqW-29" target="Ttg7Ia1kwanCxS9OXuqW-31">
          <mxGeometry relative="1" as="geometry" />
        </mxCell>
        <mxCell id="Ttg7Ia1kwanCxS9OXuqW-29" value="l 6" style="rounded=1;whiteSpace=wrap;html=1;sketch=1;fillColor=#dae8fc;strokeColor=#6c8ebf;" vertex="1" parent="1">
          <mxGeometry x="585" y="424" width="110" height="30" as="geometry" />
        </mxCell>
        <mxCell id="Ttg7Ia1kwanCxS9OXuqW-30" value="" style="edgeStyle=orthogonalEdgeStyle;rounded=0;orthogonalLoop=1;jettySize=auto;html=1;sketch=1;" edge="1" parent="1" source="Ttg7Ia1kwanCxS9OXuqW-31">
          <mxGeometry relative="1" as="geometry">
            <mxPoint x="640" y="524" as="targetPoint" />
          </mxGeometry>
        </mxCell>
        <mxCell id="Ttg7Ia1kwanCxS9OXuqW-31" value="x 8" style="rounded=1;whiteSpace=wrap;html=1;sketch=1;fillColor=#dae8fc;strokeColor=#6c8ebf;" vertex="1" parent="1">
          <mxGeometry x="585" y="474" width="110" height="30" as="geometry" />
        </mxCell>
        <mxCell id="Ttg7Ia1kwanCxS9OXuqW-32" value="最大记录" style="rounded=1;whiteSpace=wrap;html=1;sketch=1;fillColor=#f5f5f5;strokeColor=#666666;fontColor=#333333;" vertex="1" parent="1">
          <mxGeometry x="584" y="529.5" width="110" height="30" as="geometry" />
        </mxCell>
        <mxCell id="Ttg7Ia1kwanCxS9OXuqW-33" value="页1" style="text;html=1;strokeColor=none;fillColor=none;align=center;verticalAlign=middle;whiteSpace=wrap;rounded=0;sketch=1;" vertex="1" parent="1">
          <mxGeometry x="121" y="300" width="40" height="20" as="geometry" />
        </mxCell>
        <mxCell id="Ttg7Ia1kwanCxS9OXuqW-34" value="页2" style="text;html=1;strokeColor=none;fillColor=none;align=center;verticalAlign=middle;whiteSpace=wrap;rounded=0;sketch=1;" vertex="1" parent="1">
          <mxGeometry x="370" y="300" width="40" height="20" as="geometry" />
        </mxCell>
        <mxCell id="Ttg7Ia1kwanCxS9OXuqW-35" value="页3" style="text;html=1;strokeColor=none;fillColor=none;align=center;verticalAlign=middle;whiteSpace=wrap;rounded=0;sketch=1;" vertex="1" parent="1">
          <mxGeometry x="619" y="300" width="40" height="20" as="geometry" />
        </mxCell>
        <mxCell id="Ttg7Ia1kwanCxS9OXuqW-36" value="" style="rounded=1;whiteSpace=wrap;html=1;sketch=1;" vertex="1" parent="1">
          <mxGeometry x="310" y="-20.5" width="160" height="260" as="geometry" />
        </mxCell>
        <mxCell id="Ttg7Ia1kwanCxS9OXuqW-37" value="" style="edgeStyle=orthogonalEdgeStyle;rounded=0;orthogonalLoop=1;jettySize=auto;html=1;sketch=1;" edge="1" parent="1" source="Ttg7Ia1kwanCxS9OXuqW-38" target="Ttg7Ia1kwanCxS9OXuqW-44">
          <mxGeometry relative="1" as="geometry" />
        </mxCell>
        <mxCell id="Ttg7Ia1kwanCxS9OXuqW-38" value="最小记录" style="rounded=1;whiteSpace=wrap;html=1;sketch=1;fillColor=#f5f5f5;strokeColor=#666666;fontColor=#333333;" vertex="1" parent="1">
          <mxGeometry x="335" y="-5" width="110" height="30" as="geometry" />
        </mxCell>
        <mxCell id="Ttg7Ia1kwanCxS9OXuqW-39" value="" style="edgeStyle=orthogonalEdgeStyle;rounded=0;orthogonalLoop=1;jettySize=auto;html=1;sketch=1;" edge="1" parent="1" source="Ttg7Ia1kwanCxS9OXuqW-41" target="Ttg7Ia1kwanCxS9OXuqW-48">
          <mxGeometry relative="1" as="geometry" />
        </mxCell>
        <mxCell id="Ttg7Ia1kwanCxS9OXuqW-40" style="edgeStyle=orthogonalEdgeStyle;rounded=0;orthogonalLoop=1;jettySize=auto;html=1;exitX=1;exitY=0.5;exitDx=0;exitDy=0;entryX=0.5;entryY=0;entryDx=0;entryDy=0;sketch=1;" edge="1" parent="1" source="Ttg7Ia1kwanCxS9OXuqW-41" target="Ttg7Ia1kwanCxS9OXuqW-25">
          <mxGeometry relative="1" as="geometry" />
        </mxCell>
        <mxCell id="Ttg7Ia1kwanCxS9OXuqW-41" value="l 3" style="rounded=1;whiteSpace=wrap;html=1;sketch=1;fillColor=#dae8fc;strokeColor=#6c8ebf;" vertex="1" parent="1">
          <mxGeometry x="335" y="145" width="110" height="30" as="geometry" />
        </mxCell>
        <mxCell id="Ttg7Ia1kwanCxS9OXuqW-42" value="" style="edgeStyle=orthogonalEdgeStyle;rounded=0;orthogonalLoop=1;jettySize=auto;html=1;sketch=1;" edge="1" parent="1" source="Ttg7Ia1kwanCxS9OXuqW-44" target="Ttg7Ia1kwanCxS9OXuqW-47">
          <mxGeometry relative="1" as="geometry" />
        </mxCell>
        <mxCell id="Ttg7Ia1kwanCxS9OXuqW-43" style="edgeStyle=orthogonalEdgeStyle;rounded=0;orthogonalLoop=1;jettySize=auto;html=1;exitX=0;exitY=0.5;exitDx=0;exitDy=0;entryX=0.5;entryY=0;entryDx=0;entryDy=0;sketch=1;" edge="1" parent="1" source="Ttg7Ia1kwanCxS9OXuqW-44" target="Ttg7Ia1kwanCxS9OXuqW-2">
          <mxGeometry relative="1" as="geometry" />
        </mxCell>
        <mxCell id="Ttg7Ia1kwanCxS9OXuqW-44" value="a 1" style="rounded=1;whiteSpace=wrap;html=1;sketch=1;fillColor=#dae8fc;strokeColor=#6c8ebf;" vertex="1" parent="1">
          <mxGeometry x="335" y="45" width="110" height="30" as="geometry" />
        </mxCell>
        <mxCell id="Ttg7Ia1kwanCxS9OXuqW-45" value="" style="edgeStyle=orthogonalEdgeStyle;rounded=0;orthogonalLoop=1;jettySize=auto;html=1;sketch=1;" edge="1" parent="1" source="Ttg7Ia1kwanCxS9OXuqW-47" target="Ttg7Ia1kwanCxS9OXuqW-41">
          <mxGeometry relative="1" as="geometry" />
        </mxCell>
        <mxCell id="Ttg7Ia1kwanCxS9OXuqW-46" style="edgeStyle=orthogonalEdgeStyle;rounded=0;orthogonalLoop=1;jettySize=auto;html=1;exitX=0;exitY=0.5;exitDx=0;exitDy=0;entryX=0.5;entryY=0;entryDx=0;entryDy=0;sketch=1;" edge="1" parent="1" source="Ttg7Ia1kwanCxS9OXuqW-47" target="Ttg7Ia1kwanCxS9OXuqW-14">
          <mxGeometry relative="1" as="geometry">
            <Array as="points">
              <mxPoint x="230" y="110" />
              <mxPoint x="230" y="280" />
              <mxPoint x="390" y="280" />
            </Array>
          </mxGeometry>
        </mxCell>
        <mxCell id="Ttg7Ia1kwanCxS9OXuqW-47" value="d 2" style="rounded=1;whiteSpace=wrap;html=1;sketch=1;fillColor=#dae8fc;strokeColor=#6c8ebf;" vertex="1" parent="1">
          <mxGeometry x="335" y="95" width="110" height="30" as="geometry" />
        </mxCell>
        <mxCell id="Ttg7Ia1kwanCxS9OXuqW-48" value="最大记录" style="rounded=1;whiteSpace=wrap;html=1;sketch=1;fillColor=#f5f5f5;strokeColor=#666666;fontColor=#333333;" vertex="1" parent="1">
          <mxGeometry x="335" y="194.5" width="110" height="30" as="geometry" />
        </mxCell>
        <mxCell id="Ttg7Ia1kwanCxS9OXuqW-49" value="页5" style="text;html=1;strokeColor=none;fillColor=none;align=center;verticalAlign=middle;whiteSpace=wrap;rounded=0;sketch=1;" vertex="1" parent="1">
          <mxGeometry x="370" y="-60" width="40" height="20" as="geometry" />
        </mxCell>
      </root>
    </mxGraphModel>
  </diagram>
</mxfile>
